<svg width="22" height="19" viewBox="0 0 22 19" fill="none" xmlns="http://www.w3.org/2000/svg">
<path d="M9.3625 1.59119L1.2565 15.1252C1.08939 15.4146 1.00096 15.7427 1.00001 16.0768C0.999051 16.411 1.0856 16.7396 1.25104 17.0299C1.41649 17.3203 1.65506 17.5622 1.94304 17.7317C2.23101 17.9013 2.55835 17.9924 2.8925 17.9962H19.1065C19.4405 17.9923 19.7677 17.9011 20.0555 17.7317C20.3433 17.5622 20.5818 17.3204 20.7472 17.0302C20.9126 16.74 20.9992 16.4116 20.9984 16.0776C20.9976 15.7435 20.9094 15.4155 20.7425 15.1262L12.6365 1.59019C12.466 1.30869 12.2257 1.07593 11.9389 0.914386C11.6522 0.75284 11.3286 0.667969 10.9995 0.667969C10.6704 0.667969 10.3468 0.75284 10.06 0.914386C9.77329 1.07593 9.53304 1.30869 9.3625 1.59019V1.59119Z" stroke="#FF8000" stroke-width="1.125" stroke-linecap="round" stroke-linejoin="round"/>
</svg>
