<svg width="25" height="31" viewBox="0 0 25 31" fill="none" xmlns="http://www.w3.org/2000/svg">
<path d="M18.75 18.0833C18.75 18.4259 18.6183 18.7545 18.3839 18.9967C18.1494 19.2389 17.8315 19.375 17.5 19.375H7.49999C7.16847 19.375 6.85053 19.2389 6.61611 18.9967C6.38169 18.7545 6.24999 18.4259 6.24999 18.0833C6.24999 17.7408 6.38169 17.4122 6.61611 17.17C6.85053 16.9278 7.16847 16.7917 7.49999 16.7917H17.5C17.8315 16.7917 18.1494 16.9278 18.3839 17.17C18.6183 17.4122 18.75 17.7408 18.75 18.0833ZM13.75 21.9583H7.49999C7.16847 21.9583 6.85053 22.0944 6.61611 22.3367C6.38169 22.5789 6.24999 22.9074 6.24999 23.25C6.24999 23.5926 6.38169 23.9211 6.61611 24.1634C6.85053 24.4056 7.16847 24.5417 7.49999 24.5417H13.75C14.0815 24.5417 14.3994 24.4056 14.6339 24.1634C14.8683 23.9211 15 23.5926 15 23.25C15 22.9074 14.8683 22.5789 14.6339 22.3367C14.3994 22.0944 14.0815 21.9583 13.75 21.9583ZM25 13.5431V24.5417C24.998 26.2539 24.3389 27.8954 23.1672 29.1061C21.9955 30.3169 20.407 30.9979 18.75 31H6.24999C4.593 30.9979 3.00444 30.3169 1.83277 29.1061C0.661102 27.8954 0.00198482 26.2539 0 24.5417V6.45836C0.00198482 4.74613 0.661102 3.10462 1.83277 1.8939C3.00444 0.683168 4.593 0.00208075 6.24999 2.97712e-05H11.8937C13.0433 -0.0030275 14.182 0.229414 15.244 0.683914C16.3061 1.13841 17.2704 1.80596 18.0812 2.64794L22.4362 7.15069C23.2515 7.988 23.8979 8.98415 24.338 10.0814C24.7781 11.1787 25.0031 12.3554 25 13.5431ZM16.3137 4.47436C15.9203 4.08061 15.4786 3.74189 15 3.46686V9.04169C15 9.38426 15.1317 9.7128 15.3661 9.95503C15.6005 10.1973 15.9185 10.3334 16.25 10.3334H21.645C21.3787 9.83889 21.0504 9.38288 20.6687 8.9771L16.3137 4.47436ZM22.5 13.5431C22.5 13.33 22.46 13.1259 22.4412 12.9167H16.25C15.2554 12.9167 14.3016 12.5084 13.5983 11.7817C12.8951 11.055 12.5 10.0694 12.5 9.04169V2.64407C12.2975 2.62469 12.0987 2.58336 11.8937 2.58336H6.24999C5.25543 2.58336 4.30161 2.99162 3.59835 3.71832C2.89508 4.44502 2.5 5.43064 2.5 6.45836V24.5417C2.5 25.5694 2.89508 26.555 3.59835 27.2817C4.30161 28.0084 5.25543 28.4167 6.24999 28.4167H18.75C19.7445 28.4167 20.6984 28.0084 21.4016 27.2817C22.1049 26.555 22.5 25.5694 22.5 24.5417V13.5431Z" fill="black"/>
</svg>
