<svg width="20" height="19" viewBox="0 0 20 19" fill="none" xmlns="http://www.w3.org/2000/svg">
<path d="M15.3819 7.67268L17.2091 5.84546C17.6339 5.42064 17.8463 5.20823 17.9739 4.98727C18.3201 4.38763 18.3201 3.64884 17.9739 3.04921C17.8463 2.82824 17.6339 2.61583 17.2091 2.19102C16.7843 1.7662 16.5719 1.55379 16.3509 1.42622C15.7513 1.08001 15.0125 1.08002 14.4129 1.42622C14.1919 1.55379 13.9795 1.7662 13.5547 2.19101L11.7274 4.01824C10.8661 4.8796 10.4354 5.31028 9.90023 5.31028C9.36505 5.31028 8.93437 4.8796 8.07301 4.01824L6.24579 2.19101C5.82097 1.7662 5.60856 1.55379 5.3876 1.42622C4.78796 1.08001 4.04917 1.08001 3.44954 1.42622C3.22857 1.55379 3.01616 1.7662 2.59134 2.19102C2.16653 2.61583 1.95412 2.82824 1.82655 3.04921C1.48034 3.64884 1.48034 4.38763 1.82655 4.98727C1.95412 5.20823 2.16653 5.42064 2.59134 5.84546L4.41857 7.67268C5.27993 8.53404 5.71061 8.96472 5.71061 9.4999C5.71061 10.0351 5.27993 10.4658 4.41857 11.3271L2.59134 13.1543C2.16653 13.5792 1.95412 13.7916 1.82655 14.0125C1.48034 14.6122 1.48034 15.351 1.82655 15.9506C1.95412 16.1716 2.16653 16.384 2.59134 16.8088C3.01616 17.2336 3.22857 17.446 3.44953 17.5736C4.04917 17.9198 4.78796 17.9198 5.3876 17.5736C5.60856 17.446 5.82097 17.2336 6.24579 16.8088L8.07301 14.9816C8.93437 14.1202 9.36505 13.6895 9.90023 13.6895C10.4354 13.6895 10.8661 14.1202 11.7274 14.9816L13.5547 16.8088C13.9795 17.2336 14.1919 17.446 14.4129 17.5736C15.0125 17.9198 15.7513 17.9198 16.3509 17.5736C16.5719 17.446 16.7843 17.2336 17.2091 16.8088C17.6339 16.384 17.8463 16.1716 17.9739 15.9506C18.3201 15.351 18.3201 14.6122 17.9739 14.0125C17.8463 13.7916 17.6339 13.5792 17.2091 13.1543L15.3819 11.3271C14.5205 10.4658 14.0899 10.0351 14.0899 9.4999C14.0898 8.96472 14.5205 8.53404 15.3819 7.67268Z" stroke="#815B34" stroke-width="1.5625" stroke-linecap="round" stroke-linejoin="round"/>
</svg>
