<svg width="25" height="25" viewBox="0 0 25 25" fill="none" xmlns="http://www.w3.org/2000/svg">
<path d="M22.9168 12.0486C22.9168 17.5519 18.2525 22.014 12.5002 22.014C11.8238 22.0148 11.1494 21.9523 10.485 21.8275C10.0068 21.7377 9.76764 21.6928 9.60071 21.7183C9.43378 21.7438 9.19722 21.8696 8.72411 22.1212C7.38572 22.833 5.82511 23.0843 4.32424 22.8052C4.89468 22.1035 5.28427 21.2616 5.45618 20.3591C5.56035 19.8071 5.30225 19.2708 4.91567 18.8782C3.15989 17.0953 2.0835 14.6928 2.0835 12.0486C2.0835 6.54536 6.74785 2.08331 12.5002 2.08331C18.2525 2.08331 22.9168 6.54536 22.9168 12.0486Z" stroke="#E6007E" stroke-width="1.66667" stroke-linejoin="round"/>
<path d="M10.417 10.2564C10.417 9.1943 11.3497 8.33331 12.5003 8.33331C13.6509 8.33331 14.5837 9.1943 14.5837 10.2564C14.5837 10.6392 14.4625 10.9959 14.2536 11.2956C13.631 12.1888 12.5003 13.0405 12.5003 14.1025V14.5833" stroke="#E6007E" stroke-width="1.66667" stroke-linecap="round"/>
<path d="M12.5 17.1875H12.5094" stroke="#E6007E" stroke-width="1.25" stroke-linecap="round" stroke-linejoin="round"/>
</svg>
