<svg width="26" height="25" viewBox="0 0 26 25" fill="none" xmlns="http://www.w3.org/2000/svg">
<path d="M4.44629 10.4166C4.44629 6.48828 4.44629 4.52409 5.74295 3.3037C7.03961 2.08331 9.12656 2.08331 13.3005 2.08331H14.1054C17.5025 2.08331 19.201 2.08331 20.3806 2.91439C20.7186 3.15251 21.0186 3.4349 21.2716 3.75299C22.1546 4.86318 22.1546 6.46181 22.1546 9.65907V12.3106C22.1546 15.3972 22.1546 16.9405 21.6661 18.1732C20.8809 20.1547 19.2201 21.7178 17.1147 22.4569C15.805 22.9166 14.1652 22.9166 10.8857 22.9166C9.01165 22.9166 8.07464 22.9166 7.32627 22.6539C6.12316 22.2316 5.17415 21.3384 4.72542 20.2061C4.44629 19.5017 4.44629 18.6198 4.44629 16.856V10.4166Z" stroke="#565656" stroke-width="1.66667" stroke-linejoin="round"/>
<path d="M22.1545 12.5C22.1545 14.4177 20.5999 15.9722 18.6822 15.9722C17.9887 15.9722 17.1711 15.8507 16.4968 16.0314C15.8977 16.1919 15.4297 16.6599 15.2692 17.259C15.0885 17.9333 15.21 18.7509 15.21 19.4444C15.21 21.3621 13.6554 22.9167 11.7378 22.9167" stroke="#565656" stroke-width="1.5625" stroke-linecap="round" stroke-linejoin="round"/>
<path d="M9.13379 7.29169H16.4255" stroke="#565656" stroke-width="1.5625" stroke-linecap="round" stroke-linejoin="round"/>
<path d="M9.13379 11.4583H12.2588" stroke="#565656" stroke-width="1.5625" stroke-linecap="round" stroke-linejoin="round"/>
</svg>
