<svg width="74" height="76" viewBox="0 0 74 76" fill="none" xmlns="http://www.w3.org/2000/svg">
<g filter="url(#filter0_d_2443_4142)">
<circle cx="37" cy="31" r="27" fill="#F8E3CD"/>
</g>
<path d="M42.981 29.6727L44.8082 27.8455C45.233 27.4206 45.4455 27.2082 45.573 26.9873C45.9192 26.3876 45.9192 25.6488 45.573 25.0492C45.4455 24.8282 45.233 24.6158 44.8082 24.191C44.3834 23.7662 44.171 23.5538 43.95 23.4262C43.3504 23.08 42.6116 23.08 42.012 23.4262C41.791 23.5538 41.5786 23.7662 41.1538 24.191L39.3266 26.0182C38.4652 26.8796 38.0345 27.3103 37.4993 27.3103C36.9642 27.3103 36.5335 26.8796 35.6721 26.0182L33.8449 24.191C33.4201 23.7662 33.2077 23.5538 32.9867 23.4262C32.3871 23.08 31.6483 23.08 31.0487 23.4262C30.8277 23.5538 30.6153 23.7662 30.1905 24.191C29.7656 24.6158 29.5532 24.8282 29.4257 25.0492C29.0795 25.6488 29.0795 26.3876 29.4257 26.9873C29.5532 27.2082 29.7656 27.4206 30.1905 27.8455L32.0177 29.6727C32.879 30.534 33.3097 30.9647 33.3097 31.4999C33.3097 32.0351 32.879 32.4658 32.0177 33.3271L30.1905 35.1543C29.7656 35.5792 29.5532 35.7916 29.4257 36.0125C29.0795 36.6122 29.0795 37.351 29.4257 37.9506C29.5532 38.1716 29.7656 38.384 30.1905 38.8088C30.6153 39.2336 30.8277 39.446 31.0487 39.5736C31.6483 39.9198 32.3871 39.9198 32.9867 39.5736C33.2077 39.446 33.4201 39.2336 33.8449 38.8088L35.6721 36.9816C36.5335 36.1202 36.9642 35.6895 37.4993 35.6895C38.0345 35.6895 38.4652 36.1202 39.3266 36.9816L41.1538 38.8088C41.5786 39.2336 41.791 39.446 42.012 39.5736C42.6116 39.9198 43.3504 39.9198 43.95 39.5736C44.171 39.446 44.3834 39.2336 44.8082 38.8088C45.233 38.384 45.4455 38.1716 45.573 37.9506C45.9192 37.351 45.9192 36.6122 45.573 36.0125C45.4455 35.7916 45.233 35.5792 44.8082 35.1543L42.981 33.3271C42.1197 32.4658 41.689 32.0351 41.689 31.4999C41.689 30.9647 42.1197 30.534 42.981 29.6727Z" stroke="#815B34" stroke-width="1.5625" stroke-linecap="round" stroke-linejoin="round"/>
<mask id="path-3-outside-1_2443_4142" maskUnits="userSpaceOnUse" x="24.1406" y="21.0792" width="25.4651" height="25.4466" fill="black">
<rect fill="white" x="24.1406" y="21.0792" width="25.4651" height="25.4466"/>
<path d="M24.6712 23.7315C24.3782 23.4387 24.378 22.9639 24.6707 22.6709C24.9635 22.3778 25.4384 22.3776 25.7314 22.6704L47.8443 44.764C48.1373 45.0568 48.1375 45.5316 47.8448 45.8247C47.552 46.1177 47.0771 46.1179 46.7841 45.8251L24.6712 23.7315Z"/>
</mask>
<path d="M24.6712 23.7315C24.3782 23.4387 24.378 22.9639 24.6707 22.6709C24.9635 22.3778 25.4384 22.3776 25.7314 22.6704L47.8443 44.764C48.1373 45.0568 48.1375 45.5316 47.8448 45.8247C47.552 46.1177 47.0771 46.1179 46.7841 45.8251L24.6712 23.7315Z" fill="#815B34"/>
<path d="M24.1406 23.2014L25.2008 22.1403L24.1406 23.2014ZM48.3749 45.2941L47.3147 46.3552L48.3749 45.2941ZM47.3147 46.3552L24.1406 23.2014L47.3147 46.3552ZM24.6707 22.6709C25.3538 21.9871 26.4619 21.9867 27.1456 22.6698L47.8437 43.3498C48.5274 44.0329 48.5279 45.1409 47.8448 45.8247C47.7846 45.8849 47.7146 45.9344 47.6378 45.9712L25.0246 23.3778L24.5242 22.8779C24.5611 22.8011 24.6105 22.7311 24.6707 22.6709L24.6707 22.6709Z" fill="#F8E3CD" mask="url(#path-3-outside-1_2443_4142)"/>
<defs>
<filter id="filter0_d_2443_4142" x="0" y="2" width="74" height="74" filterUnits="userSpaceOnUse" color-interpolation-filters="sRGB">
<feFlood flood-opacity="0" result="BackgroundImageFix"/>
<feColorMatrix in="SourceAlpha" type="matrix" values="0 0 0 0 0 0 0 0 0 0 0 0 0 0 0 0 0 0 127 0" result="hardAlpha"/>
<feOffset dy="8"/>
<feGaussianBlur stdDeviation="5"/>
<feComposite in2="hardAlpha" operator="out"/>
<feColorMatrix type="matrix" values="0 0 0 0 0.855632 0 0 0 0 0.584462 0 0 0 0 0.305431 0 0 0 0.42 0"/>
<feBlend mode="normal" in2="BackgroundImageFix" result="effect1_dropShadow_2443_4142"/>
<feBlend mode="normal" in="SourceGraphic" in2="effect1_dropShadow_2443_4142" result="shape"/>
</filter>
</defs>
</svg>
