<svg width="24" height="25" viewBox="0 0 24 25" fill="none" xmlns="http://www.w3.org/2000/svg">
<path d="M10 5.46411C10 5.99454 10.2107 6.50325 10.5858 6.87832C10.9609 7.2534 11.4696 7.46411 12 7.46411C12.5304 7.46411 13.0391 7.2534 13.4142 6.87832C13.7893 6.50325 14 5.99454 14 5.46411C14 4.93368 13.7893 4.42497 13.4142 4.0499C13.0391 3.67482 12.5304 3.46411 12 3.46411C11.4696 3.46411 10.9609 3.67482 10.5858 4.0499C10.2107 4.42497 10 4.93368 10 5.46411Z" fill="#1F1F1F"/>
<path d="M10 12.4641C10 12.9945 10.2107 13.5033 10.5858 13.8783C10.9609 14.2534 11.4696 14.4641 12 14.4641C12.5304 14.4641 13.0391 14.2534 13.4142 13.8783C13.7893 13.5033 14 12.9945 14 12.4641C14 11.9337 13.7893 11.425 13.4142 11.0499C13.0391 10.6748 12.5304 10.4641 12 10.4641C11.4696 10.4641 10.9609 10.6748 10.5858 11.0499C10.2107 11.425 10 11.9337 10 12.4641Z" fill="#1F1F1F"/>
<path d="M10 19.4641C10 19.9945 10.2107 20.5033 10.5858 20.8783C10.9609 21.2534 11.4696 21.4641 12 21.4641C12.5304 21.4641 13.0391 21.2534 13.4142 20.8783C13.7893 20.5033 14 19.9945 14 19.4641C14 18.9337 13.7893 18.425 13.4142 18.0499C13.0391 17.6748 12.5304 17.4641 12 17.4641C11.4696 17.4641 10.9609 17.6748 10.5858 18.0499C10.2107 18.425 10 18.9337 10 19.4641Z" fill="#1F1F1F"/>
</svg>
