<svg width="24" height="24" viewBox="0 0 24 24" fill="none" xmlns="http://www.w3.org/2000/svg">
<path d="M21.005 7.13358L20.5114 6.27698C20.1381 5.62915 19.9515 5.30523 19.6339 5.17607C19.3163 5.0469 18.9571 5.14883 18.2388 5.35267L17.0186 5.69637C16.56 5.80212 16.0788 5.74213 15.6601 5.52698L15.3232 5.33261C14.9641 5.10262 14.6879 4.76352 14.535 4.36493L14.2011 3.36754C13.9815 2.70753 13.8717 2.37752 13.6103 2.18876C13.349 2 13.0018 2 12.3074 2H11.1926C10.4983 2 10.1511 2 9.88973 2.18876C9.62835 2.37752 9.51856 2.70753 9.29899 3.36754L8.96503 4.36493C8.81215 4.76352 8.53595 5.10262 8.17687 5.33261L7.83999 5.52698C7.42124 5.74213 6.94009 5.80212 6.48148 5.69637L5.26125 5.35267C4.54291 5.14883 4.18375 5.0469 3.86617 5.17607C3.54859 5.30523 3.36195 5.62915 2.98865 6.27698L2.49507 7.13358C2.14516 7.74083 1.9702 8.04446 2.00416 8.36768C2.03811 8.6909 2.27233 8.95137 2.74076 9.47231L3.7718 10.625C4.0238 10.944 4.20271 11.5 4.20271 11.9998C4.20271 12.5 4.02386 13.0558 3.77183 13.3749L2.74076 14.5276C2.27233 15.0485 2.03812 15.309 2.00416 15.6322C1.9702 15.9555 2.14516 16.2591 2.49507 16.8663L2.98864 17.7229C3.36193 18.3707 3.54859 18.6947 3.86617 18.8238C4.18375 18.953 4.54292 18.8511 5.26127 18.6472L6.48144 18.3035C6.94013 18.1977 7.42137 18.2578 7.84017 18.473L8.177 18.6674C8.53601 18.8974 8.81214 19.2364 8.965 19.635L9.29899 20.6325C9.51856 21.2925 9.62835 21.6225 9.88973 21.8112C10.1511 22 10.4983 22 11.1926 22H12.3074C13.0018 22 13.349 22 13.6103 21.8112C13.8717 21.6225 13.9815 21.2925 14.2011 20.6325L14.5351 19.635C14.6879 19.2364 14.964 18.8974 15.3231 18.6674L15.6599 18.473C16.0787 18.2578 16.5599 18.1977 17.0186 18.3035L18.2388 18.6472C18.9571 18.8511 19.3163 18.953 19.6339 18.8238C19.9515 18.6947 20.1381 18.3707 20.5114 17.7229L21.005 16.8663C21.3549 16.2591 21.5298 15.9555 21.4959 15.6322C21.4619 15.309 21.2277 15.0485 20.7593 14.5276L19.7282 13.3749C19.4762 13.0558 19.2973 12.5 19.2973 11.9998C19.2973 11.5 19.4763 10.944 19.7282 10.625L20.7593 9.47231C21.2277 8.95137 21.4619 8.6909 21.4959 8.36768C21.5298 8.04446 21.3549 7.74083 21.005 7.13358Z" stroke="#1F1F1F" stroke-width="1.5" stroke-linecap="round"/>
<path d="M15.207 11.9922C15.207 13.9252 13.64 15.4922 11.707 15.4922C9.77403 15.4922 8.20703 13.9252 8.20703 11.9922C8.20703 10.0592 9.77403 8.49219 11.707 8.49219C13.64 8.49219 15.207 10.0592 15.207 11.9922Z" stroke="#1F1F1F" stroke-width="1.5"/>
</svg>
